:SAMPLES-PER-SECOND 30
:FULLY-SPECIFIED
:DEGREES
457
root  -39.4301 39.3882 -27.7657 -148.265 -85.6683 164.07
RightUpLeg  -41.7682 -14.0345 5.60656
RightLeg  21.3516 -1.11724 -0.702913
RightFoot  5.22608 0.816911 -5.36651
RightToes  0.000482159 0.542163 -0.142577
Spine  62.7192 -3.28371 4.52498
Spine1  6.80703 1.07767 -5.64114
HEad  -27.8382 3.68979 -14.663
LeftShoulder1  10.7171 -23.6846 -33.235
LeftArm  -19.083 -49.5232 -25.663
LeftForeArm  21.0052 -2.86821 -5.73869
LeftHand  -0.25398 0.0180481 5.50724
RightShoulder  5.98817 16.7734 23.2818
RightArm  -11.433 44.8366 29.8319
RightForeArm  -3.46772 3.59897 8.62263
RightHand  -3.66949 9.83348 -27.8814
LeftUpLeg  -40.356 20.9154 -15.8627
LeftLeg  16.5619 2.19864 -0.0871078
LeftFoot  4.44774 -1.62524 11.4823
LeftToes  1.06247e-005 4.65855e-005 -8.18501e-006
458
root  -39.2565 39.5238 -27.6904 -153.277 -85.4474 167.045
RightUpLeg  -38.9014 -12.5877 3.83887
RightLeg  20.6476 1.15788 0.27378
RightFoot  5.28905 0.419587 -2.60369
RightToes  0.000482159 0.542163 -0.142577
Spine  60.0618 -3.06808 4.34603
Spine1  7.90501 1.21388 -5.7853
HEad  -25.8663 5.84088 -16.5846
LeftShoulder1  11.1439 -22.9875 -35.8662
LeftArm  -16.156 -42.2254 -26.7016
LeftForeArm  20.1828 -3.34499 -6.25376
LeftHand  -0.25398 0.0180481 5.50724
RightShoulder  6.59808 16.5934 26.7337
RightArm  -6.6787 38.4855 31.401
RightForeArm  -3.80843 5.67993 9.64792
RightHand  -3.28864 8.72056 -27.0007
LeftUpLeg  -36.6529 19.2583 -12.5807
LeftLeg  14.8397 5.47981 -1.2798
LeftFoot  5.28765 -1.76936 11.8401
LeftToes  1.06247e-005 4.65855e-005 -8.18501e-006
459
root  -39.0967 39.629 -27.6648 -158.518 -85.3371 170.16
RightUpLeg  -36.1271 -9.26373 1.19984
RightLeg  21.6031 2.38959 0.82997
RightFoot  3.96088 -0.079405 0.815783
RightToes  0.000482159 0.542163 -0.142577
Spine  57.7434 -2.87892 4.03248
Spine1  8.52317 1.16913 -5.64661
HEad  -23.5724 9.07178 -19.1757
LeftShoulder1  11.5104 -22.0472 -38.7757
LeftArm  -14.5149 -34.3039 -26.3238
LeftForeArm  18.5125 -4.30404 -6.53123
LeftHand  -0.25398 0.0180481 5.50724
RightShoulder  6.99452 16.2061 29.4703
RightArm  -2.8372 32.1995 32.7039
RightForeArm  -3.63374 7.40607 10.1152
RightHand  -3.09809 8.23298 -26.3764
LeftUpLeg  -33.049 16.735 -9.09259
LeftLeg  13.3886 9.28033 -2.3696
LeftFoot  5.92603 -1.88578 12.1329
LeftToes  1.06247e-005 4.65855e-005 -8.18501e-006
460
root  -38.9333 39.716 -27.7033 -163.957 -85.3526 173.459
RightUpLeg  -33.7789 -5.57818 -1.0812
RightLeg  24.693 0.891222 0.205998
RightFoot  1.38119 -0.271252 2.48395
RightToes  0.000482159 0.542163 -0.142577
Spine  55.9959 -2.71945 3.53478
Spine1  8.13713 0.894674 -5.30836
HEad  -20.8207 13.6328 -21.9848
LeftShoulder1  11.7605 -20.7992 -41.9551
LeftArm  -13.3198 -25.8721 -24.7404
LeftForeArm  16.6136 -5.64666 -6.73809
LeftHand  -0.25398 0.0180481 5.50724
RightShoulder  7.18192 15.6797 31.4515
RightArm  0.495292 25.642 34.1313
RightForeArm  -4.05585 9.05145 10.1034
RightHand  -3.1202 8.32658 -26.3808
LeftUpLeg  -29.937 14.6184 -6.35172
LeftLeg  12.2934 12.142 -3.15005
LeftFoot  6.44318 -1.92961 12.0345
LeftToes  1.06247e-005 4.65855e-005 -8.18501e-006
461
root  -38.7594 39.8071 -27.8055 -169.474 -85.4861 176.923
RightUpLeg  -31.4936 -2.88485 -2.41084
RightLeg  29.0513 -2.47469 -1.73299
RightFoot  -1.44473 -0.184458 1.98882
RightToes  0.000482159 0.542163 -0.142577
Spine  53.7521 -2.57044 3.15877
Spine1  8.63323 0.635407 -4.97405
HEad  -18.5784 18.5479 -24.509
LeftShoulder1  11.8968 -19.6485 -44.7319
LeftArm  -12.4383 -18.0953 -22.529
LeftForeArm  15.2191 -6.8954 -6.81537
LeftHand  -0.25398 0.0180481 5.50724
RightShoulder  7.26803 15.1636 32.9602
RightArm  2.8728 19.3281 35.0595
RightForeArm  -5.9817 11.1147 9.66307
RightHand  -3.16417 8.43491 -26.5366
LeftUpLeg  -27.1135 13.1484 -4.25717
LeftLeg  11.1284 13.9475 -3.83206
LeftFoot  7.05705 -1.92655 11.5875
LeftToes  1.06247e-005 4.65855e-005 -8.18501e-006
462
root  -38.5781 39.888 -27.9629 -173.109 -85.8237 178.619
RightUpLeg  -28.8546 -1.07582 -3.34317
RightLeg  33.5584 -5.29328 -4.00557
RightFoot  -3.84036 -0.0865391 0.929535
RightToes  0.000482159 0.542163 -0.142577
Spine  51.399 -2.51161 3.02976
Spine1  9.43418 0.500835 -4.97944
HEad  -16.8137 23.168 -26.5076
LeftShoulder1  11.8797 -18.7468 -46.5569
LeftArm  -11.5123 -10.7612 -20.68
LeftForeArm  14.4446 -8.18654 -6.75269
LeftHand  -0.25398 0.0180481 5.50724
RightShoulder  7.26115 14.4843 34.3901
RightArm  5.49809 12.9827 35.4904
RightForeArm  -9.92546 14.1757 8.70304
RightHand  -3.08886 8.184 -26.3876
LeftUpLeg  -24.4102 11.6676 -2.55426
LeftLeg  9.70244 15.3834 -4.58085
LeftFoot  7.81897 -1.93824 11.1615
LeftToes  1.06247e-005 4.65855e-005 -8.18501e-006
463
root  -38.3871 39.9392 -28.1663 -172.726 -86.4598 176.49
RightUpLeg  -25.8571 0.275826 -4.33338
RightLeg  37.535 -6.30604 -5.42641
RightFoot  -5.72519 -0.0635697 0.521672
RightToes  0.000482159 0.542163 -0.142577
Spine  49.1176 -2.47415 3.0003
Spine1  10.0632 0.455262 -5.13275
HEad  -15.2787 27.5205 -28.2184
LeftShoulder1  11.749 -18.0324 -47.6046
LeftArm  -10.4224 -3.68315 -19.339
LeftForeArm  13.7691 -9.73017 -6.54537
LeftHand  -0.25398 0.0180481 5.50724
RightShoulder  7.14594 13.6695 35.6206
RightArm  8.41738 6.54483 35.6693
RightForeArm  -14.7445 17.7444 7.35938
RightHand  -2.96718 7.75506 -26.1814
LeftUpLeg  -21.9783 9.85624 -1.30075
LeftLeg  8.12429 16.7124 -5.35583
LeftFoot  8.71188 -1.99437 10.9415
LeftToes  1.06247e-005 4.65855e-005 -8.18501e-006
